<?xml version="1.0" standalone="no"?>
<!DOCTYPE svg PUBLIC "-//W3C//DTD SVG 20010904//EN"
 "http://www.w3.org/TR/2001/REC-SVG-20010904/DTD/svg10.dtd">
<svg version="1.0" xmlns="http://www.w3.org/2000/svg"
 width="350.000000pt" height="200.000000pt" viewBox="0 0 350.000000 200.000000"
 preserveAspectRatio="xMidYMid meet">

<g transform="translate(0.000000,200.000000) scale(0.100000,-0.100000)"
fill="#CFDCFF" stroke="#CFDCFF">
<path d="M1610 1708 c-139 -13 -325 -53 -437 -94 -54 -19 -150 -52 -213 -73
-333 -110 -499 -274 -517 -507 -7 -88 20 -185 69 -255 177 -250 317 -343 619
-411 99 -22 121 -23 494 -22 385 0 392 0 518 27 135 29 274 70 396 119 40 16
76 26 79 23 8 -7 -150 -78 -243 -108 -189 -62 -355 -87 -627 -94 -120 -3 -218
-9 -218 -13 0 -37 408 -17 650 31 312 62 543 187 764 414 54 56 102 146 112
212 9 61 -11 155 -51 238 -165 343 -785 571 -1395 513z m546 -47 c460 -87 776
-291 856 -554 36 -121 15 -221 -69 -325 -20 -24 -37 -42 -38 -40 -2 2 5 29 16
60 14 43 20 91 22 190 2 125 0 136 -23 182 -113 222 -589 391 -1230 437 -140
10 -233 9 -415 -6 l-60 -5 38 14 c45 18 217 54 313 66 125 16 466 5 590 -19z
m-286 -97 c321 -36 577 -101 765 -194 159 -78 245 -155 270 -240 5 -19 -7 -10
-46 34 -128 141 -351 238 -689 300 -210 38 -367 49 -588 43 -302 -8 -495 -48
-692 -145 -78 -38 -110 -61 -181 -132 -59 -58 -97 -105 -118 -148 -42 -84 -65
-175 -58 -234 4 -26 4 -48 1 -48 -14 0 -57 118 -61 168 -17 181 96 357 294
460 96 50 123 54 62 10 -106 -75 -276 -285 -252 -309 7 -7 20 7 41 43 70 123
223 263 367 335 64 33 210 60 415 77 78 7 329 -4 470 -20z m224 -113 c337 -55
574 -144 702 -263 62 -59 114 -142 114 -182 -1 -68 -103 -193 -222 -272 -193
-129 -608 -278 -930 -334 -124 -22 -130 -22 -255 -6 -366 47 -650 138 -837
269 -65 46 -93 95 -103 178 -20 169 126 385 332 491 131 67 266 107 450 133
153 22 580 14 749 -14z m820 -568 c-17 -76 -26 -102 -54 -150 -34 -59 -65 -85
-170 -142 -140 -75 -354 -148 -559 -192 -88 -18 -333 -39 -321 -27 3 3 72 22
154 42 441 110 814 294 913 452 32 50 46 56 37 17z m-2021 -374 c85 -35 272
-87 385 -109 58 -11 108 -23 111 -27 10 -10 -161 8 -260 28 -153 30 -306 95
-380 160 l-34 30 63 -31 c34 -17 86 -40 115 -51z"/>
</g>
</svg>
