<?xml version="1.0" standalone="no"?>
<!DOCTYPE svg PUBLIC "-//W3C//DTD SVG 20010904//EN"
 "http://www.w3.org/TR/2001/REC-SVG-20010904/DTD/svg10.dtd">
<svg version="1.0" xmlns="http://www.w3.org/2000/svg"
 width="500.000000pt" height="500.000000pt" viewBox="0 0 500.000000 500.000000"
 preserveAspectRatio="xMidYMid meet">

<g transform="translate(0.000000,500.000000) scale(0.100000,-0.100000)"
fill="#cfdcff" stroke="none">
<path d="M3870 2649 c-480 -18 -1630 -41 -2334 -47 -602 -6 -770 -10 -774 -19
-3 -10 79 -13 390 -13 369 0 1246 12 1763 24 127 3 226 4 220 1 -11 -5 -662
-55 -1055 -81 -135 -9 -409 -19 -609 -23 -249 -4 -366 -9 -368 -17 -6 -18 272
-24 1101 -24 424 0 776 -4 783 -8 7 -4 -141 -23 -327 -42 -319 -32 -373 -40
-358 -55 3 -4 165 10 360 30 832 85 826 84 814 103 -2 4 -75 4 -163 0 -240 -9
-1338 -9 -1327 1 5 4 101 14 214 20 113 7 432 30 710 51 588 46 902 67 1125
75 175 7 205 10 205 25 0 11 -67 11 -370 -1z"/>
</g>
</svg>
